<svg xmlns="http://www.w3.org/2000/svg" width="190" height="31" viewBox="0 0 190 31" fill="none">
  <path d="M15 0.937744L18.3677 11.3025H29.2658L20.4491 17.7083L23.8168 28.073L15 21.6672L6.18322 28.073L9.55093 17.7083L0.734152 11.3025H11.6323L15 0.937744Z" fill="#001E43"/>
  <path d="M55 0.937744L58.3677 11.3025H69.2658L60.4491 17.7083L63.8168 28.073L55 21.6672L46.1832 28.073L49.5509 17.7083L40.7342 11.3025H51.6323L55 0.937744Z" fill="#001E43"/>
  <path d="M95 0.937744L98.3677 11.3025H109.266L100.449 17.7083L103.817 28.073L95 21.6672L86.1832 28.073L89.5509 17.7083L80.7342 11.3025H91.6323L95 0.937744Z" fill="#001E43"/>
  <path d="M135 0.937744L138.368 11.3025H149.266L140.449 17.7083L143.817 28.073L135 21.6672L126.183 28.073L129.551 17.7083L120.734 11.3025H131.632L135 0.937744Z" fill="#001E43"/>
  <path d="M175 0.937744L178.368 11.3025H189.266L180.449 17.7083L183.817 28.073L175 21.6672L166.183 28.073L169.551 17.7083L160.734 11.3025H171.632L175 0.937744Z" fill="#001E43"/>
</svg>